<mxfile host="app.diagrams.net" agent="Mozilla/5.0 (Windows NT 10.0; Win64; x64) AppleWebKit/537.36 (KHTML, like Gecko) Chrome/109.0.0.0 Safari/537.36 Edg/109.0.1518.78" version="24.7.7">
  <diagram name="第 1 页" id="54BJwtoG-cp-33cE2wWl">
    <mxGraphModel dx="2214" dy="796" grid="1" gridSize="10" guides="1" tooltips="1" connect="1" arrows="1" fold="1" page="1" pageScale="1" pageWidth="827" pageHeight="1169" math="0" shadow="0">
      <root>
        <mxCell id="0" />
        <mxCell id="1" parent="0" />
        <mxCell id="9z1HUDdmIe7pnTlIsTbF-13" value="" style="edgeStyle=orthogonalEdgeStyle;rounded=0;orthogonalLoop=1;jettySize=auto;html=1;" parent="1" source="9z1HUDdmIe7pnTlIsTbF-14" target="9z1HUDdmIe7pnTlIsTbF-16" edge="1">
          <mxGeometry relative="1" as="geometry" />
        </mxCell>
        <mxCell id="9z1HUDdmIe7pnTlIsTbF-14" value="收到AT+ESLBLOB=12" style="fontSize=14;zwfType=basicShape;strokeWidth=2;html=1;shape=mxgraph.flowchart.terminator;whiteSpace=wrap;strokeColor=#52BD94;fontColor=#FFFFFF;fillColor=#52BD94;" parent="1" vertex="1">
          <mxGeometry x="270" y="41" width="136" height="72" as="geometry" />
        </mxCell>
        <mxCell id="9z1HUDdmIe7pnTlIsTbF-15" value="" style="edgeStyle=orthogonalEdgeStyle;rounded=0;orthogonalLoop=1;jettySize=auto;html=1;" parent="1" source="9z1HUDdmIe7pnTlIsTbF-16" target="9z1HUDdmIe7pnTlIsTbF-20" edge="1">
          <mxGeometry relative="1" as="geometry" />
        </mxCell>
        <mxCell id="9z1HUDdmIe7pnTlIsTbF-16" value="验签，解密&lt;br&gt;Decode&lt;br&gt;(需要比较收到ServerTime比保存的时间大，才认为是有效的更新)" style="fontSize=14;spacingLeft=10;spacingRight=10;zwfType=basicShape;rounded=0;strokeWidth=2;strokeColor=#474D66;whiteSpace=wrap;html=1;" parent="1" vertex="1">
          <mxGeometry x="217" y="171" width="242" height="100" as="geometry" />
        </mxCell>
        <mxCell id="9z1HUDdmIe7pnTlIsTbF-17" value="&lt;span&gt;解析出：&lt;/span&gt;&lt;br&gt;&lt;span&gt;enabled, mode开关&lt;br&gt;activateTime, 锁机时长&lt;br&gt;advanceTime,提醒时长&lt;br&gt;serverTime 时间戳&lt;/span&gt;" style="fontSize=14;spacingLeft=10;spacingRight=10;zwfType=basicShape;shape=mxgraph.flowchart.data;html=1;strokeWidth=2;perimeter=parallelogramPerimeter;whiteSpace=wrap;rounded=1;arcSize=12;size=0.23;" parent="1" vertex="1">
          <mxGeometry x="507" y="161" width="260" height="120" as="geometry" />
        </mxCell>
        <mxCell id="9z1HUDdmIe7pnTlIsTbF-18" value="" style="spacingLeft=10;spacingRight=10;zwfType=line;endArrow=none;html=1;startSize=14;endSize=14;strokeLinecap=round;sourcePerimeterSpacing=8;targetPerimeterSpacing=8;strokeWidth=2;exitX=1;exitY=0.5;exitDx=0;exitDy=0;entryX=0.095;entryY=0.5;entryDx=0;entryDy=0;entryPerimeter=0;" parent="1" source="9z1HUDdmIe7pnTlIsTbF-16" target="9z1HUDdmIe7pnTlIsTbF-17" edge="1">
          <mxGeometry width="160" height="10" relative="1" as="geometry">
            <mxPoint x="470" y="201" as="sourcePoint" />
            <mxPoint x="630" y="191" as="targetPoint" />
          </mxGeometry>
        </mxCell>
        <mxCell id="9z1HUDdmIe7pnTlIsTbF-19" value="" style="edgeStyle=orthogonalEdgeStyle;rounded=0;orthogonalLoop=1;jettySize=auto;html=1;" parent="1" source="9z1HUDdmIe7pnTlIsTbF-20" target="9z1HUDdmIe7pnTlIsTbF-23" edge="1">
          <mxGeometry relative="1" as="geometry" />
        </mxCell>
        <mxCell id="9z1HUDdmIe7pnTlIsTbF-29" value="Yes" style="edgeLabel;html=1;align=center;verticalAlign=middle;resizable=0;points=[];" parent="9z1HUDdmIe7pnTlIsTbF-19" vertex="1" connectable="0">
          <mxGeometry x="-0.0575" y="-1" relative="1" as="geometry">
            <mxPoint as="offset" />
          </mxGeometry>
        </mxCell>
        <mxCell id="9z1HUDdmIe7pnTlIsTbF-20" value="是否成功解析" style="fontSize=14;spacingLeft=10;spacingRight=10;zwfType=basicShape;strokeWidth=2;rhombus;whiteSpace=wrap;html=1;strokeColor=#474D66;" parent="1" vertex="1">
          <mxGeometry x="253" y="351" width="170" height="90" as="geometry" />
        </mxCell>
        <mxCell id="9z1HUDdmIe7pnTlIsTbF-21" value="" style="edgeStyle=orthogonalEdgeStyle;rounded=0;orthogonalLoop=1;jettySize=auto;html=1;" parent="1" source="9z1HUDdmIe7pnTlIsTbF-23" target="9z1HUDdmIe7pnTlIsTbF-24" edge="1">
          <mxGeometry relative="1" as="geometry" />
        </mxCell>
        <mxCell id="9z1HUDdmIe7pnTlIsTbF-23" value="返回解析结果&lt;div&gt;success or failed&lt;/div&gt;" style="fontSize=14;spacingLeft=10;spacingRight=10;zwfType=basicShape;rounded=0;strokeWidth=2;strokeColor=#474D66;whiteSpace=wrap;html=1;" parent="1" vertex="1">
          <mxGeometry x="258" y="521" width="160" height="72" as="geometry" />
        </mxCell>
        <mxCell id="9z1HUDdmIe7pnTlIsTbF-31" style="edgeStyle=orthogonalEdgeStyle;rounded=0;orthogonalLoop=1;jettySize=auto;html=1;exitX=0.5;exitY=1;exitDx=0;exitDy=0;entryX=0.5;entryY=0;entryDx=0;entryDy=0;" parent="1" source="9z1HUDdmIe7pnTlIsTbF-24" target="9z1HUDdmIe7pnTlIsTbF-30" edge="1">
          <mxGeometry relative="1" as="geometry" />
        </mxCell>
        <mxCell id="9z1HUDdmIe7pnTlIsTbF-53" value="Yes" style="edgeLabel;html=1;align=center;verticalAlign=middle;resizable=0;points=[];" parent="9z1HUDdmIe7pnTlIsTbF-31" vertex="1" connectable="0">
          <mxGeometry x="-0.4" y="-2" relative="1" as="geometry">
            <mxPoint as="offset" />
          </mxGeometry>
        </mxCell>
        <mxCell id="9z1HUDdmIe7pnTlIsTbF-56" value="" style="edgeStyle=orthogonalEdgeStyle;rounded=0;orthogonalLoop=1;jettySize=auto;html=1;" parent="1" source="9z1HUDdmIe7pnTlIsTbF-24" edge="1">
          <mxGeometry relative="1" as="geometry">
            <mxPoint x="737.0000000000005" y="906" as="targetPoint" />
          </mxGeometry>
        </mxCell>
        <mxCell id="9z1HUDdmIe7pnTlIsTbF-59" value="No" style="edgeLabel;html=1;align=center;verticalAlign=middle;resizable=0;points=[];" parent="9z1HUDdmIe7pnTlIsTbF-56" vertex="1" connectable="0">
          <mxGeometry x="-0.3005" y="-1" relative="1" as="geometry">
            <mxPoint as="offset" />
          </mxGeometry>
        </mxCell>
        <mxCell id="9z1HUDdmIe7pnTlIsTbF-24" value="operation code&lt;br&gt;是否为0,1,3" style="fontSize=14;spacingLeft=10;spacingRight=10;zwfType=basicShape;strokeWidth=2;rhombus;whiteSpace=wrap;html=1;strokeColor=#474D66;" parent="1" vertex="1">
          <mxGeometry x="253" y="651" width="170" height="90" as="geometry" />
        </mxCell>
        <mxCell id="9z1HUDdmIe7pnTlIsTbF-39" value="" style="edgeStyle=orthogonalEdgeStyle;rounded=0;orthogonalLoop=1;jettySize=auto;html=1;" parent="1" source="9z1HUDdmIe7pnTlIsTbF-25" target="9z1HUDdmIe7pnTlIsTbF-32" edge="1">
          <mxGeometry relative="1" as="geometry" />
        </mxCell>
        <mxCell id="9z1HUDdmIe7pnTlIsTbF-54" value="Yes" style="edgeLabel;html=1;align=center;verticalAlign=middle;resizable=0;points=[];" parent="9z1HUDdmIe7pnTlIsTbF-39" vertex="1" connectable="0">
          <mxGeometry x="0.336" relative="1" as="geometry">
            <mxPoint as="offset" />
          </mxGeometry>
        </mxCell>
        <mxCell id="9z1HUDdmIe7pnTlIsTbF-61" style="edgeStyle=orthogonalEdgeStyle;rounded=0;orthogonalLoop=1;jettySize=auto;html=1;exitX=1;exitY=0.5;exitDx=0;exitDy=0;entryX=0;entryY=0.5;entryDx=0;entryDy=0;" parent="1" source="9z1HUDdmIe7pnTlIsTbF-25" edge="1">
          <mxGeometry relative="1" as="geometry">
            <mxPoint x="677.0000000000005" y="936" as="targetPoint" />
          </mxGeometry>
        </mxCell>
        <mxCell id="9z1HUDdmIe7pnTlIsTbF-25" value="离线锁机信息是否更新" style="fontSize=14;spacingLeft=10;spacingRight=10;zwfType=basicShape;strokeWidth=2;rhombus;whiteSpace=wrap;html=1;strokeColor=#474D66;" parent="1" vertex="1">
          <mxGeometry x="253" y="891" width="170" height="90" as="geometry" />
        </mxCell>
        <mxCell id="9z1HUDdmIe7pnTlIsTbF-43" value="" style="edgeStyle=orthogonalEdgeStyle;rounded=0;orthogonalLoop=1;jettySize=auto;html=1;" parent="1" source="9z1HUDdmIe7pnTlIsTbF-26" target="9z1HUDdmIe7pnTlIsTbF-34" edge="1">
          <mxGeometry relative="1" as="geometry" />
        </mxCell>
        <mxCell id="9z1HUDdmIe7pnTlIsTbF-26" value="&lt;div&gt;refresh timer&lt;/div&gt;启动累加定时器，时长为10s" style="fontSize=14;spacingLeft=10;spacingRight=10;zwfType=basicShape;rounded=0;strokeWidth=2;strokeColor=#474D66;whiteSpace=wrap;html=1;" parent="1" vertex="1">
          <mxGeometry x="258" y="1598" width="160" height="72" as="geometry" />
        </mxCell>
        <mxCell id="Qx7GQze8lIG7kLsKz-tr-5" value="" style="edgeStyle=orthogonalEdgeStyle;rounded=0;orthogonalLoop=1;jettySize=auto;html=1;" edge="1" parent="1" source="9z1HUDdmIe7pnTlIsTbF-28" target="Qx7GQze8lIG7kLsKz-tr-4">
          <mxGeometry relative="1" as="geometry" />
        </mxCell>
        <mxCell id="Qx7GQze8lIG7kLsKz-tr-7" value="Update" style="edgeLabel;html=1;align=center;verticalAlign=middle;resizable=0;points=[];" vertex="1" connectable="0" parent="Qx7GQze8lIG7kLsKz-tr-5">
          <mxGeometry x="-0.4419" y="1" relative="1" as="geometry">
            <mxPoint as="offset" />
          </mxGeometry>
        </mxCell>
        <mxCell id="9z1HUDdmIe7pnTlIsTbF-28" value="&lt;span style=&quot;background-color: rgb(255, 255, 255); font-family: Consolas, &amp;quot;Courier New&amp;quot;, monospace; white-space: pre;&quot;&gt;duration_time_counter&lt;/span&gt;= 0&lt;div&gt;&lt;div style=&quot;background-color: rgb(255, 255, 255); font-family: Consolas, &amp;quot;Courier New&amp;quot;, monospace; line-height: 19px; white-space: pre;&quot;&gt;start_timestamp=time()&lt;/div&gt;&lt;/div&gt;" style="fontSize=14;spacingLeft=10;spacingRight=10;zwfType=basicShape;rounded=0;strokeWidth=2;strokeColor=#474D66;whiteSpace=wrap;html=1;" parent="1" vertex="1">
          <mxGeometry x="228.5" y="1291" width="219" height="72" as="geometry" />
        </mxCell>
        <mxCell id="9z1HUDdmIe7pnTlIsTbF-38" value="" style="edgeStyle=orthogonalEdgeStyle;rounded=0;orthogonalLoop=1;jettySize=auto;html=1;" parent="1" source="9z1HUDdmIe7pnTlIsTbF-30" target="9z1HUDdmIe7pnTlIsTbF-25" edge="1">
          <mxGeometry relative="1" as="geometry" />
        </mxCell>
        <mxCell id="9z1HUDdmIe7pnTlIsTbF-30" value="根据锁卡配置，执行原有的锁卡流程" style="fontSize=14;spacingLeft=10;spacingRight=10;zwfType=basicShape;rounded=0;strokeWidth=2;strokeColor=#474D66;whiteSpace=wrap;html=1;" parent="1" vertex="1">
          <mxGeometry x="258" y="781" width="160" height="72" as="geometry" />
        </mxCell>
        <mxCell id="9z1HUDdmIe7pnTlIsTbF-40" value="" style="edgeStyle=orthogonalEdgeStyle;rounded=0;orthogonalLoop=1;jettySize=auto;html=1;" parent="1" source="9z1HUDdmIe7pnTlIsTbF-32" target="9z1HUDdmIe7pnTlIsTbF-33" edge="1">
          <mxGeometry relative="1" as="geometry" />
        </mxCell>
        <mxCell id="9z1HUDdmIe7pnTlIsTbF-45" value="Yes" style="edgeLabel;html=1;align=center;verticalAlign=middle;resizable=0;points=[];" parent="9z1HUDdmIe7pnTlIsTbF-40" vertex="1" connectable="0">
          <mxGeometry x="0.064" y="1" relative="1" as="geometry">
            <mxPoint as="offset" />
          </mxGeometry>
        </mxCell>
        <mxCell id="9z1HUDdmIe7pnTlIsTbF-48" value="" style="edgeStyle=orthogonalEdgeStyle;rounded=0;orthogonalLoop=1;jettySize=auto;html=1;" parent="1" source="9z1HUDdmIe7pnTlIsTbF-32" edge="1">
          <mxGeometry relative="1" as="geometry">
            <mxPoint x="97.00000000000045" y="1141" as="targetPoint" />
          </mxGeometry>
        </mxCell>
        <mxCell id="9z1HUDdmIe7pnTlIsTbF-49" value="No" style="edgeLabel;html=1;align=center;verticalAlign=middle;resizable=0;points=[];" parent="9z1HUDdmIe7pnTlIsTbF-48" vertex="1" connectable="0">
          <mxGeometry x="-0.2456" y="1" relative="1" as="geometry">
            <mxPoint as="offset" />
          </mxGeometry>
        </mxCell>
        <mxCell id="9z1HUDdmIe7pnTlIsTbF-32" value="mode是否为1" style="fontSize=14;spacingLeft=10;spacingRight=10;zwfType=basicShape;strokeWidth=2;rhombus;whiteSpace=wrap;html=1;strokeColor=#474D66;" parent="1" vertex="1">
          <mxGeometry x="253" y="1011" width="170" height="90" as="geometry" />
        </mxCell>
        <mxCell id="9z1HUDdmIe7pnTlIsTbF-41" value="" style="edgeStyle=orthogonalEdgeStyle;rounded=0;orthogonalLoop=1;jettySize=auto;html=1;" parent="1" source="9z1HUDdmIe7pnTlIsTbF-33" target="9z1HUDdmIe7pnTlIsTbF-28" edge="1">
          <mxGeometry relative="1" as="geometry" />
        </mxCell>
        <mxCell id="Qx7GQze8lIG7kLsKz-tr-2" value="Yes" style="edgeLabel;html=1;align=center;verticalAlign=middle;resizable=0;points=[];" vertex="1" connectable="0" parent="9z1HUDdmIe7pnTlIsTbF-41">
          <mxGeometry x="-0.296" y="5" relative="1" as="geometry">
            <mxPoint as="offset" />
          </mxGeometry>
        </mxCell>
        <mxCell id="9z1HUDdmIe7pnTlIsTbF-33" value="activateTime和更新之前的activeTime是否不同" style="fontSize=14;spacingLeft=10;spacingRight=10;zwfType=basicShape;strokeWidth=2;rhombus;whiteSpace=wrap;html=1;strokeColor=#474D66;" parent="1" vertex="1">
          <mxGeometry x="253" y="1151" width="170" height="90" as="geometry" />
        </mxCell>
        <mxCell id="9z1HUDdmIe7pnTlIsTbF-44" value="" style="edgeStyle=orthogonalEdgeStyle;rounded=0;orthogonalLoop=1;jettySize=auto;html=1;" parent="1" source="9z1HUDdmIe7pnTlIsTbF-34" target="9z1HUDdmIe7pnTlIsTbF-35" edge="1">
          <mxGeometry relative="1" as="geometry" />
        </mxCell>
        <mxCell id="9z1HUDdmIe7pnTlIsTbF-34" value="&lt;font face=&quot;Consolas, Courier New, monospace&quot;&gt;&lt;span style=&quot;white-space: pre; background-color: rgb(255, 255, 255);&quot;&gt;回复更新结果给AP&lt;/span&gt;&lt;/font&gt;&lt;div&gt;&lt;font face=&quot;Consolas, Courier New, monospace&quot;&gt;&lt;span style=&quot;background-color: rgb(255, 255, 255);&quot;&gt;&lt;span style=&quot;white-space: pre;&quot;&gt;AT&amp;lt; +OLCK: 1,0,180,12&lt;/span&gt;&lt;br&gt;&lt;/span&gt;&lt;/font&gt;&lt;/div&gt;" style="fontSize=14;spacingLeft=10;spacingRight=10;zwfType=basicShape;rounded=0;strokeWidth=2;strokeColor=#474D66;whiteSpace=wrap;html=1;" parent="1" vertex="1">
          <mxGeometry x="228.5" y="1707" width="219" height="72" as="geometry" />
        </mxCell>
        <mxCell id="9z1HUDdmIe7pnTlIsTbF-35" value="主动上报给AP&lt;div&gt;+OLCK:&amp;lt;mode&amp;gt;,&amp;lt;lock status&amp;gt;,&amp;lt;expire time&amp;gt;,&amp;lt;restriction&amp;gt;&lt;br&gt;&lt;/div&gt;" style="fontSize=14;spacingLeft=10;spacingRight=10;zwfType=basicShape;rounded=0;strokeWidth=2;strokeColor=#474D66;whiteSpace=wrap;html=1;" parent="1" vertex="1">
          <mxGeometry x="258" y="1838" width="160" height="72" as="geometry" />
        </mxCell>
        <mxCell id="9z1HUDdmIe7pnTlIsTbF-36" value="NV保存的数据：&lt;div&gt;&lt;span style=&quot;font-size: 14px; background-color: rgb(255, 255, 255); font-family: Consolas, &amp;quot;Courier New&amp;quot;, monospace; white-space: pre;&quot;&gt;duration_time_counter&lt;/span&gt;&lt;span style=&quot;font-size: 14px;&quot;&gt;：已用时长&lt;/span&gt;&lt;div style=&quot;font-size: 14px;&quot;&gt;&lt;div style=&quot;background-color: rgb(255, 255, 255); font-family: Consolas, &amp;quot;Courier New&amp;quot;, monospace; line-height: 19px; white-space: pre;&quot;&gt;start_timestamp:收到离线锁机数据时间&lt;/div&gt;&lt;/div&gt;&lt;/div&gt;" style="shape=step;perimeter=stepPerimeter;whiteSpace=wrap;html=1;fixedSize=1;" parent="1" vertex="1">
          <mxGeometry x="527" y="1289" width="300" height="74" as="geometry" />
        </mxCell>
        <mxCell id="9z1HUDdmIe7pnTlIsTbF-51" value="" style="edgeStyle=orthogonalEdgeStyle;rounded=0;orthogonalLoop=1;jettySize=auto;html=1;exitX=0.5;exitY=1;exitDx=0;exitDy=0;entryX=0.5;entryY=0;entryDx=0;entryDy=0;" parent="1" source="9z1HUDdmIe7pnTlIsTbF-47" target="9z1HUDdmIe7pnTlIsTbF-50" edge="1">
          <mxGeometry relative="1" as="geometry">
            <mxPoint x="97" y="1221" as="sourcePoint" />
            <mxPoint x="97" y="1297" as="targetPoint" />
          </mxGeometry>
        </mxCell>
        <mxCell id="9z1HUDdmIe7pnTlIsTbF-47" value="清除定时器" style="whiteSpace=wrap;html=1;fontSize=14;strokeColor=#474D66;spacingLeft=10;spacingRight=10;strokeWidth=2;" parent="1" vertex="1">
          <mxGeometry x="10" y="1130" width="160" height="80" as="geometry" />
        </mxCell>
        <mxCell id="9z1HUDdmIe7pnTlIsTbF-52" style="edgeStyle=orthogonalEdgeStyle;rounded=0;orthogonalLoop=1;jettySize=auto;html=1;exitX=0.5;exitY=1;exitDx=0;exitDy=0;entryX=0;entryY=0.5;entryDx=0;entryDy=0;" parent="1" source="9z1HUDdmIe7pnTlIsTbF-50" target="9z1HUDdmIe7pnTlIsTbF-34" edge="1">
          <mxGeometry relative="1" as="geometry">
            <mxPoint x="97" y="1355" as="sourcePoint" />
          </mxGeometry>
        </mxCell>
        <mxCell id="9z1HUDdmIe7pnTlIsTbF-50" value="&lt;span style=&quot;background-color: rgb(255, 255, 255); font-family: Consolas, &amp;quot;Courier New&amp;quot;, monospace; white-space: pre;&quot;&gt;duration_time_counter&lt;/span&gt;= 0&lt;div&gt;&lt;div style=&quot;background-color: rgb(255, 255, 255); font-family: Consolas, &amp;quot;Courier New&amp;quot;, monospace; line-height: 19px; white-space: pre;&quot;&gt;start_timestamp=0&lt;/div&gt;&lt;/div&gt;&lt;div style=&quot;background-color: rgb(255, 255, 255); font-family: Consolas, &amp;quot;Courier New&amp;quot;, monospace; line-height: 19px; white-space: pre;&quot;&gt;保存NV&lt;/div&gt;" style="whiteSpace=wrap;html=1;fontSize=14;strokeColor=#474D66;spacingLeft=10;spacingRight=10;strokeWidth=2;" parent="1" vertex="1">
          <mxGeometry x="-15" y="1289" width="210" height="58" as="geometry" />
        </mxCell>
        <mxCell id="9z1HUDdmIe7pnTlIsTbF-55" value="回复failed结果给AP" style="whiteSpace=wrap;html=1;fontSize=14;strokeColor=#474D66;spacingLeft=10;spacingRight=10;strokeWidth=2;" parent="1" vertex="1">
          <mxGeometry x="660" y="895" width="120" height="60" as="geometry" />
        </mxCell>
        <mxCell id="9z1HUDdmIe7pnTlIsTbF-63" value="" style="endArrow=none;html=1;rounded=0;entryX=1;entryY=0.5;entryDx=0;entryDy=0;" parent="1" source="9z1HUDdmIe7pnTlIsTbF-36" target="9z1HUDdmIe7pnTlIsTbF-28" edge="1">
          <mxGeometry width="50" height="50" relative="1" as="geometry">
            <mxPoint x="627" y="1331" as="sourcePoint" />
            <mxPoint x="677" y="1281" as="targetPoint" />
          </mxGeometry>
        </mxCell>
        <mxCell id="9z1HUDdmIe7pnTlIsTbF-66" value="&lt;div style=&quot;&quot;&gt;&lt;span style=&quot;background-color: initial;&quot;&gt;携带Operation Code为0&lt;/span&gt;&lt;/div&gt;&lt;div style=&quot;&quot;&gt;&lt;span style=&quot;background-color: rgb(255, 255, 255); font-family: Consolas, &amp;quot;Courier New&amp;quot;, monospace; font-size: 14px; white-space: pre; color: rgb(47, 79, 79);&quot;&gt;OPLUS_SIMLOCK_OPERATION_LOCK_PRODUCTION&lt;/span&gt;&lt;span style=&quot;background-color: rgb(255, 255, 255); font-family: Consolas, &amp;quot;Courier New&amp;quot;, monospace; font-size: 14px; white-space: pre;&quot;&gt;= &lt;/span&gt;&lt;span style=&quot;background-color: rgb(255, 255, 255); font-family: Consolas, &amp;quot;Courier New&amp;quot;, monospace; font-size: 14px; white-space: pre; color: rgb(9, 134, 88);&quot;&gt;0x00&lt;/span&gt;&lt;span style=&quot;background-color: rgb(255, 255, 255); font-family: Consolas, &amp;quot;Courier New&amp;quot;, monospace; font-size: 14px; white-space: pre;&quot;&gt;,&lt;/span&gt;&lt;/div&gt;" style="shape=step;perimeter=stepPerimeter;whiteSpace=wrap;html=1;fixedSize=1;align=center;size=30;labelBorderColor=none;labelPosition=center;verticalLabelPosition=middle;verticalAlign=middle;" parent="1" vertex="1">
          <mxGeometry x="390" y="601" width="418.5" height="50" as="geometry" />
        </mxCell>
        <mxCell id="9z1HUDdmIe7pnTlIsTbF-69" value="" style="endArrow=none;html=1;rounded=0;exitX=1;exitY=0;exitDx=0;exitDy=0;entryX=0.024;entryY=1;entryDx=0;entryDy=0;entryPerimeter=0;" parent="1" source="9z1HUDdmIe7pnTlIsTbF-24" target="9z1HUDdmIe7pnTlIsTbF-66" edge="1">
          <mxGeometry width="50" height="50" relative="1" as="geometry">
            <mxPoint x="507" y="791" as="sourcePoint" />
            <mxPoint x="389.5110000000004" y="662" as="targetPoint" />
          </mxGeometry>
        </mxCell>
        <mxCell id="Qx7GQze8lIG7kLsKz-tr-12" value="" style="edgeStyle=orthogonalEdgeStyle;rounded=0;orthogonalLoop=1;jettySize=auto;html=1;" edge="1" parent="1" source="Qx7GQze8lIG7kLsKz-tr-4" target="Qx7GQze8lIG7kLsKz-tr-9">
          <mxGeometry relative="1" as="geometry" />
        </mxCell>
        <mxCell id="Qx7GQze8lIG7kLsKz-tr-4" value="更新realme锁卡数据NV&lt;div&gt;&lt;div style=&quot;background-color: rgb(255, 255, 255); font-family: Consolas, &amp;quot;Courier New&amp;quot;, monospace; line-height: 19px; white-space: pre;&quot;&gt;oplus_simlock_timer_nv_update&lt;/div&gt;&lt;/div&gt;" style="fontSize=14;spacingLeft=10;spacingRight=10;zwfType=basicShape;rounded=0;strokeWidth=2;strokeColor=#474D66;whiteSpace=wrap;html=1;" vertex="1" parent="1">
          <mxGeometry x="205" y="1400" width="266" height="70" as="geometry" />
        </mxCell>
        <mxCell id="Qx7GQze8lIG7kLsKz-tr-11" value="" style="edgeStyle=orthogonalEdgeStyle;rounded=0;orthogonalLoop=1;jettySize=auto;html=1;" edge="1" parent="1" source="Qx7GQze8lIG7kLsKz-tr-9" target="9z1HUDdmIe7pnTlIsTbF-26">
          <mxGeometry relative="1" as="geometry" />
        </mxCell>
        <mxCell id="Qx7GQze8lIG7kLsKz-tr-9" value="&lt;div style=&quot;background-color: rgb(255, 255, 255); font-family: Consolas, &amp;quot;Courier New&amp;quot;, monospace; line-height: 19px; white-space: pre;&quot;&gt;执行判断超时逻辑&lt;/div&gt;&lt;div style=&quot;background-color: rgb(255, 255, 255); font-family: Consolas, &amp;quot;Courier New&amp;quot;, monospace; line-height: 19px; white-space: pre;&quot;&gt;oplus_simlock_timer_policy_init();&lt;/div&gt;&lt;div&gt;&lt;/div&gt;" style="fontSize=14;spacingLeft=10;spacingRight=10;zwfType=basicShape;rounded=0;strokeWidth=2;strokeColor=#474D66;whiteSpace=wrap;html=1;" vertex="1" parent="1">
          <mxGeometry x="192.75" y="1510" width="290.5" height="40" as="geometry" />
        </mxCell>
      </root>
    </mxGraphModel>
  </diagram>
</mxfile>
